# Blender v3.4.1 OBJ File: ''
# www.blender.org
mtllib Geometry.mtl
o geometry
v -4.000000 -0.100000 3.000000
v 4.000000 -0.100000 3.000000
v 4.000000 -0.000000 3.000000
v -4.000000 -0.000000 3.000000
v 4.000000 0.000000 -3.000000
v -4.000000 0.000000 -3.000000
v 4.000000 -0.100000 -3.000000
v -4.000000 -0.100000 -3.000000
v -0.146796 0.000000 -1.747628
v 0.103165 0.000000 -1.751991
v 0.021816 -0.000000 0.749810
v 0.103165 2.000000 -1.751991
v 0.021816 2.000000 0.749810
v -0.146796 2.000000 -1.747628
v 4.337981 8.749999 6.353351
v 5.637019 8.749999 5.603351
v 5.637019 7.249999 5.603351
v 4.337981 7.249999 6.353351
v -1.935338 -0.010000 0.557208
v -0.942792 -0.010000 0.435338
v -0.942792 0.990000 0.435339
v -1.935338 0.990000 0.557208
v -1.064662 0.990000 -0.557208
v -2.057208 0.990000 -0.435338
v -1.064662 -0.010000 -0.557208
v -2.057208 -0.010000 -0.435338
v 0.096907 -0.153093 2.125000
v 0.403093 0.153093 1.875000
v 0.278093 0.528093 2.181186
v -0.028093 0.221906 2.431186
v -0.096907 0.653093 1.875000
v -0.403093 0.346907 2.125000
v 0.028093 0.278093 1.568814
v -0.278093 -0.028093 1.818814
v 1.045480 0.010000 0.541675
v 2.041675 0.010000 0.454519
v 2.041675 1.010000 0.454520
v 1.045480 1.010000 0.541675
v 1.954520 1.010000 -0.541675
v 0.958325 1.010000 -0.454519
v 1.954520 0.010000 -0.541675
v 0.958325 0.010000 -0.454519
vt 0.975610 0.648834
vt 0.975610 0.000000
vt 0.983740 0.000000
vt 0.983740 0.648834
vt 0.000000 0.650421
vt 0.000000 0.000000
vt 0.487793 0.000000
vt 0.487793 0.650421
vt 0.983740 0.643250
vt 0.983740 0.000000
vt 0.991870 0.000000
vt 0.991870 0.643250
vt 0.975586 0.000000
vt 0.975586 0.650421
vt 0.487793 0.650421
vt 0.487793 0.000000
vt 0.991870 0.487335
vt 1.000000 0.000000
vt 1.000000 0.487335
vt 1.000000 0.487335
vt 1.000000 0.973969
vt 0.991870 0.973969
vt 0.991870 0.487335
vt 0.845068 0.651428
vt 0.865368 0.650406
vt 0.865368 0.853912
vt 0.162602 0.853317
vt 0.162602 0.650406
vt 0.325203 0.650406
vt 0.325203 0.853317
vt 0.885668 0.650406
vt 0.885668 0.853912
vt 0.865368 0.852898
vt 0.885667 0.650406
vt 0.905818 0.650406
vt 0.905818 0.813004
vt 0.885667 0.813004
vt 0.000000 0.650406
vt 0.162598 0.650406
vt 0.162598 0.853912
vt 0.000000 0.853912
vt 0.325195 0.650391
vt 0.438660 0.650391
vt 0.438660 0.772339
vt 0.325195 0.772339
vt 0.763748 0.731707
vt 0.844940 0.731707
vt 0.844940 0.813008
vt 0.763748 0.813008
vt 0.438677 0.731705
vt 0.438677 0.650406
vt 0.519978 0.650406
vt 0.519978 0.731705
vt 0.601257 0.731705
vt 0.682526 0.731705
vt 0.682526 0.813004
vt 0.601257 0.813004
vt 0.682579 0.731705
vt 0.682579 0.650406
vt 0.763878 0.650406
vt 0.763878 0.731705
vt 0.438679 0.813008
vt 0.519733 0.813008
vt 0.519733 0.894309
vt 0.438679 0.894309
vt 0.845070 0.731705
vt 0.763882 0.650406
vt 0.845070 0.650406
vt 0.566208 0.813004
vt 0.558792 0.843552
vt 0.519730 0.843552
vt 0.527161 0.813004
vt 0.598740 0.852371
vt 0.567245 0.858795
vt 0.567245 0.819435
vt 0.598740 0.813011
vt 0.438198 0.782562
vt 0.438198 0.819752
vt 0.406353 0.809547
vt 0.406353 0.772358
vt 0.630226 0.858795
vt 0.598740 0.852356
vt 0.598740 0.813004
vt 0.630226 0.819427
vt 0.567245 0.870377
vt 0.528183 0.870377
vt 0.630219 0.813011
vt 0.657654 0.821762
vt 0.657654 0.860641
vt 0.630219 0.851891
vt 0.438675 0.731707
vt 0.519966 0.731707
vt 0.519966 0.813008
vt 0.438675 0.813008
vt 0.682583 0.650406
vt 0.682583 0.731705
vt 0.601280 0.731705
vt 0.601280 0.650406
vt 0.325203 0.772354
vt 0.406349 0.772354
vt 0.406349 0.853653
vt 0.325203 0.853653
vt 0.519978 0.731705
vt 0.519978 0.650406
vt 0.601280 0.650406
vt 0.601280 0.731705
vt 0.682526 0.731707
vt 0.763752 0.731707
vt 0.763752 0.813008
vt 0.682526 0.813008
vt 0.601254 0.813004
vt 0.519966 0.813004
vt 0.519966 0.731705
vt 0.601254 0.731705
vn 0.0000 0.0000 1.0000
vn 0.0000 1.0000 0.0000
vn 0.0000 0.0000 -1.0000
vn 0.0000 -1.0000 -0.0000
vn 1.0000 0.0000 0.0000
vn -1.0000 0.0000 0.0000
vn 0.9995 -0.0000 0.0325
vn -0.0175 0.0000 -0.9998
vn -0.9977 -0.0000 0.0674
vn -0.5000 0.0000 -0.8660
vn 0.1219 -0.0000 0.9925
vn -0.1219 0.0000 -0.9925
vn 0.9925 0.0000 -0.1219
vn -0.9925 -0.0000 0.1219
vn 0.7500 -0.2500 0.6124
vn -0.2500 0.7500 0.6124
vn -0.7500 0.2500 -0.6124
vn 0.2500 -0.7500 -0.6124
vn 0.6124 0.6124 -0.5000
vn -0.6124 -0.6124 0.5000
vn 0.0872 -0.0000 0.9962
vn -0.0872 0.0000 -0.9962
vn 0.9962 0.0000 -0.0872
vn -0.9962 0.0000 0.0872
usemtl AO_Mat
s off
f 1/1/1 2/2/1 3/3/1 4/4/1
f 4/5/2 3/6/2 5/7/2 6/8/2
f 6/9/3 5/10/3 7/11/3 8/12/3
f 8/13/4 7/14/4 2/15/4 1/16/4
f 2/17/5 7/11/5 5/18/5 3/19/5
f 8/20/6 1/21/6 4/22/6 6/23/6
f 9/24/4 10/25/4 11/26/4
f 11/27/7 10/28/7 12/29/7 13/30/7
f 13/31/2 12/32/2 14/33/2
f 14/34/8 12/35/8 10/36/8 9/37/8
f 14/38/9 9/39/9 11/40/9 13/41/9
f 15/42/10 16/43/10 17/44/10 18/45/10
f 19/46/11 20/47/11 21/48/11 22/49/11
f 22/50/2 21/51/2 23/52/2 24/53/2
f 24/54/12 23/55/12 25/56/12 26/57/12
f 26/58/4 25/59/4 20/60/4 19/61/4
f 20/62/13 25/63/13 23/64/13 21/65/13
f 26/66/14 19/61/14 22/67/14 24/68/14
f 27/69/15 28/70/15 29/71/15 30/72/15
f 30/73/16 29/74/16 31/75/16 32/76/16
f 32/77/17 31/78/17 33/79/17 34/80/17
f 34/81/18 33/82/18 28/83/18 27/84/18
f 28/70/19 33/85/19 31/86/19 29/71/19
f 34/87/20 27/88/20 30/89/20 32/90/20
f 35/91/21 36/92/21 37/93/21 38/94/21
f 38/95/2 37/96/2 39/97/2 40/98/2
f 40/99/22 39/100/22 41/101/22 42/102/22
f 42/103/4 41/104/4 36/105/4 35/106/4
f 36/107/23 41/108/23 39/109/23 37/110/23
f 42/111/24 35/112/24 38/113/24 40/114/24
